<svg xmlns="http://www.w3.org/2000/svg" xmlns:xlink="http://www.w3.org/1999/xlink" width="241.5" height="37.246" viewBox="0 0 241.5 37.246">
  <defs>
    <clipPath id="clip-path">
      <rect id="Rectangle_37" data-name="Rectangle 37" width="241.5" height="37.246" fill="#fff"/>
    </clipPath>
  </defs>
  <g id="Group_35" data-name="Group 35" transform="translate(0 0)">
    <rect id="Rectangle_35" data-name="Rectangle 35" width="106.348" height="3.524" transform="translate(0.339 33.722)" fill="#fff"/>
    <g id="Group_34" data-name="Group 34" transform="translate(0 0)">
      <g id="Group_33" data-name="Group 33" clip-path="url(#clip-path)">
        <path id="Path_69" data-name="Path 69" d="M213.917,0V12.142a9.3,9.3,0,0,1,7.177-2.976c3.459.112,6.02,1.972,6.228,5.383.3,4.97.078,9.973.078,15.127h-4.262c0-2.4.013-4.765,0-7.129-.013-1.9.039-3.811-.117-5.7-.226-2.73-1.181-3.71-3.51-3.937-2.568-.25-4.617.968-5.189,3.3a16.81,16.81,0,0,0-.326,3.759c-.042,3.164-.014,6.328-.014,9.682h-4.162c-.105-.236-.212-.365-.212-.493q.03-14.579.076-29.157Z" transform="translate(-120.789 0)" fill="#fff"/>
        <path id="Path_70" data-name="Path 70" d="M511.135,41.595c0-2.565,0-5.017,0-7.468,0-1.621.036-3.243-.016-4.862-.1-3.278-1.258-4.574-3.972-4.554-2.751.019-4.5,1.808-4.527,4.714-.032,3.312-.008,6.625-.008,9.937V41.62H498.2V21.54h4.3c.069.8.136,1.59.215,2.5,4.293-4.576,9.775-3.789,12.211.43a8.534,8.534,0,0,1,7.057-3.539c3.434.037,6.154,2.061,6.383,5.486.314,4.7.221,9.434.193,14.152,0,.406-.769,1.047-1.273,1.159a15.7,15.7,0,0,1-3.075.053c0-2.1.007-4.046,0-5.989-.01-2.325.076-4.657-.079-6.973-.208-3.1-1.3-4.144-3.937-4.111a4.394,4.394,0,0,0-4.543,4.532c-.075,2.958-.023,5.919-.025,8.88,0,4.009,0,4.009-4.5,3.472" transform="translate(-287.102 -12.064)" fill="#fff"/>
        <path id="Path_71" data-name="Path 71" d="M25.44,12.985a35.031,35.031,0,0,1-3.95-.05,1.835,1.835,0,0,1-1.244-1.048,5.968,5.968,0,0,0-5.41-4.361A7.534,7.534,0,0,0,7.291,10.8c-2.521,3.658-2.53,10.436,0,14.091A7.362,7.362,0,0,0,14.453,28.1c2.919-.284,5.207-1.569,6.284-4.566a2.567,2.567,0,0,1,1.7-1.262,16.839,16.839,0,0,1,3.291-.056,9.859,9.859,0,0,1-3.182,6.876C17.632,33.727,7.45,33,3.209,27.759-2.638,20.529-.186,8.332,8.048,4.733A13.436,13.436,0,0,1,21.575,5.8a9.014,9.014,0,0,1,3.865,7.187" transform="translate(0 -1.96)" fill="#fff"/>
        <path id="Path_72" data-name="Path 72" d="M124,33.068H109.574c.047,3.177,1.375,5.3,3.53,5.95,2.619.79,4.7-.189,6.683-2.13.875-.856,2.766-.675,4.3-.988-.464,4.764-4.866,7.274-10.782,6.535-5.773-.721-9.415-5.974-8.5-12.257.877-6.017,6.148-9.577,12.45-8.408,4.86.9,7.947,5.935,6.742,11.3m-4.33-3.063c-.144-3.425-1.7-5.1-4.663-5.191-2.92-.093-5.013,1.913-5.271,5.191Z" transform="translate(-60.319 -12.418)" fill="#fff"/>
        <path id="Path_73" data-name="Path 73" d="M298.458,42.182a9.842,9.842,0,0,1-10.3-10.168c-.037-6.2,4.458-10.961,10.387-11.009,6.082-.049,10.644,4.671,10.619,10.983-.025,6.125-4.288,10.182-10.71,10.194m6.075-10.428c.008-3.471-1.319-6.019-3.568-6.854A5.747,5.747,0,0,0,293.1,28.73c-1.333,4.651.534,9.165,4.121,9.961a5.34,5.34,0,0,0,.626.087c4.062.408,6.679-2.34,6.689-7.025" transform="translate(-166.06 -12.104)" fill="#fff"/>
        <path id="Path_74" data-name="Path 74" d="M358.418,22.335h4.238V42.618H358.44c-.083-.863-.155-1.62-.254-2.65a14.415,14.415,0,0,0-1.174.93c-2.465,2.448-5.459,2.568-8.462,1.572-2.924-.969-3.909-3.481-3.939-6.365-.046-4.507-.012-9.015-.012-13.708h4.258c.046.668.136,1.408.14,2.149.017,3.314-.025,6.629.021,9.942.048,3.477,1.4,4.966,4.367,4.961,2.867,0,4.878-2.094,4.917-5.2.041-3.243.005-6.487.016-9.731,0-.688.062-1.376.1-2.182" transform="translate(-198.576 -12.871)" fill="#fff"/>
        <path id="Path_75" data-name="Path 75" d="M260.48,32.128h-4.991V29.78c0-6.556-.051-13.113.035-19.668.022-1.672-.478-2.267-2.158-2.147-1.811.129-3.639.029-5.61.029V4.338h20.559V7.995c-2.021,0-3.983.078-5.935-.025-1.5-.08-1.941.483-1.927,1.946.062,6.555.027,13.111.026,19.668v2.545" transform="translate(-142.775 -2.5)" fill="#fff"/>
        <path id="Path_76" data-name="Path 76" d="M450.665,36h3.942c1.168,2.727,2.173,3.323,5.2,3.153,1.547-.087,2.848-.6,3.114-2.274.283-1.771-1-2.513-2.437-2.909-1.559-.428-3.169-.674-4.731-1.092-3.482-.931-4.682-2.386-4.684-5.544,0-2.858,1.528-4.957,4.732-5.6a16.732,16.732,0,0,1,6.218.023c2.674.5,4.147,2.442,4.5,5.3-1.973.158-3.665.539-5.221-1.481-.665-.864-2.924-.754-4.414-.614-.611.057-1.539,1.373-1.526,2.1A2.865,2.865,0,0,0,457,29.126c1.842.654,3.833.872,5.735,1.376,3.443.913,4.774,2.828,4.48,6.334a5.118,5.118,0,0,1-3.132,4.642,11.907,11.907,0,0,1-10.4-.27A5.43,5.43,0,0,1,450.665,36" transform="translate(-259.706 -12.363)" fill="#fff"/>
        <path id="Path_77" data-name="Path 77" d="M176.019,28.954a23.018,23.018,0,0,1-3.167-.044,1.96,1.96,0,0,1-1.328-.948,4.415,4.415,0,0,0-4.551-2.78,5.146,5.146,0,0,0-4.875,3.135,9.445,9.445,0,0,0-.018,7.8c.956,2.242,3.014,3.261,5.725,3.069,2.184-.154,3.5-1.39,4.44-4.251h3.692c.564,3.236-2.875,7.251-7.677,7.6-6.356.46-10.841-2.86-11.476-8.562-.712-6.389,2.744-11.462,8.311-12.2,6.217-.821,10.117,1.7,10.925,7.185" transform="translate(-90.297 -12.457)" fill="#fff"/>
        <path id="Path_78" data-name="Path 78" d="M74.222,26.161H64.815v-3.53H81.189l-11.1,16.533H80.524v3.562H63.094L74.222,26.161" transform="translate(-36.359 -13.042)" fill="#fff"/>
        <path id="Path_79" data-name="Path 79" d="M403.407,41.959h-4.152V21.882h4.326c.069.98.135,1.917.233,3.3,1.708-2.486,3.666-3.768,6.469-3.743v3.75c-.115.076-.217.192-.336.214-5.418,1-6.269,2.028-6.276,7.58,0,2.814-.024,5.628-.047,8.442a2.063,2.063,0,0,1-.217.531" transform="translate(-230.08 -12.355)" fill="#fff"/>
        <rect id="Rectangle_36" data-name="Rectangle 36" width="4.323" height="20.067" transform="translate(183.126 9.524)" fill="#fff"/>
        <path id="Path_80" data-name="Path 80" d="M435.9,3.967a2.325,2.325,0,0,1-2.56,2.148,2.258,2.258,0,0,1-2.516-2.433A2.462,2.462,0,0,1,433.482,1.1c1.505.151,2.437.952,2.422,2.866" transform="translate(-248.274 -0.627)" fill="#fff"/>
      </g>
    </g>
  </g>
</svg>
