<svg id="Group_37" data-name="Group 37" xmlns="http://www.w3.org/2000/svg" xmlns:xlink="http://www.w3.org/1999/xlink" width="241.968" height="106.898" viewBox="0 0 241.968 106.898">
  <defs>
    <clipPath id="clip-path">
      <rect id="Rectangle_41" data-name="Rectangle 41" width="241.968" height="106.898" fill="#fff"/>
    </clipPath>
  </defs>
  <g id="Group_36" data-name="Group 36" clip-path="url(#clip-path)">
    <path id="Path_82" data-name="Path 82" d="M134.8,66.12a6.249,6.249,0,0,0-3.336-4.477l-5.439-2.753v.01H78.392V35.146l-6.553-2.73a6.261,6.261,0,0,0-5.329-.15L3.759,62.617a6.263,6.263,0,0,0-1.039,10.9l62.31,41.425c12.605,8.93,19.45,8.93,28.379,0l39.829-43.466A6.258,6.258,0,0,0,134.8,66.12" transform="translate(0 -14.744)" fill="#fff"/>
    <path id="Path_83" data-name="Path 83" d="M176.428,8.018l3.64,6.486h-2.225l-2.771-4.893-1.7,1.944V14.5h-1.93V4.1h1.93V8.874L177.545,4.1h2.3Z" transform="translate(-79.635 -1.905)" fill="#fff"/>
    <path id="Path_84" data-name="Path 84" d="M194.005,5.781a4.816,4.816,0,0,1,2.063.22,1.491,1.491,0,0,1,.824,1.4,1.621,1.621,0,0,1-1.827,1.606c-.367.017-.617.031-1.281.031h-.677V5.781ZM191.176,14.5h1.931V10.641h1.738l2.061,3.863h2.226l-2.311-4.229a2.852,2.852,0,0,0,2.045-2.859,3.173,3.173,0,0,0-1.147-2.563c-.915-.736-1.843-.736-3.23-.751h-3.313Z" transform="translate(-88.799 -1.905)" fill="#fff"/>
    <path id="Path_85" data-name="Path 85" d="M211.9,8.871l1.445-4.79,1.428,4.79Zm3.994,3.728h2.077L214.42,2.2h-2.21L208.7,12.6h2.079l.6-2.035h3.9ZM213.066,0l-1.092,1.575h1.505L215.6,0Z" transform="translate(-96.94)" fill="#fff"/>
    <path id="Path_86" data-name="Path 86" d="M230.919,12.721h4.127v1.77h-6.088V4.072h1.962Z" transform="translate(-106.348 -1.892)" fill="#fff"/>
    <path id="Path_87" data-name="Path 87" d="M249.01,9.293c-.045,2.5-1.709,3.448-3.008,3.448-1.722,0-3.02-1.4-3.02-3.743,0-2.167,1.194-3.61,2.979-3.61,2.047,0,3.093,1.87,3.049,3.905m1.944-.222c.016-3.551-2.4-5.466-4.98-5.466-2.844,0-5,2.3-5,5.479a5.729,5.729,0,0,0,1.385,3.863,4.411,4.411,0,0,0,3.581,1.591c3.2,0,5-2.491,5.01-5.467" transform="translate(-111.932 -1.674)" fill="#fff"/>
    <path id="Path_88" data-name="Path 88" d="M269.982,4.1l-2.961,10.4H264.4L261.333,4.1h2.048l2.329,8.207L267.963,4.1Z" transform="translate(-121.386 -1.905)" fill="#fff"/>
    <path id="Path_89" data-name="Path 89" d="M283.574,3.935V6.379h5.009v1.68h-5.009v2.785h5.85V12.6h-7.766V2.2h7.4V3.935ZM288.052,0l-2.121,1.575h-1.5L285.518,0Z" transform="translate(-130.827)" fill="#fff"/>
    <path id="Path_90" data-name="Path 90" d="M309.063,4.1V14.5H307.1V9.771h-4.465V14.5h-1.943V4.1h1.943V8.036H307.1V4.1Z" transform="translate(-139.669 -1.905)" fill="#fff"/>
    <path id="Path_91" data-name="Path 91" d="M324.386,5.781a4.809,4.809,0,0,1,2.063.22,1.493,1.493,0,0,1,.827,1.4,1.623,1.623,0,0,1-1.83,1.606c-.366.017-.616.031-1.281.031h-.678V5.781ZM321.558,14.5h1.929V10.641h1.739l2.063,3.863h2.225L327.2,10.274a2.851,2.851,0,0,0,2.046-2.859A3.169,3.169,0,0,0,328.1,4.852c-.912-.736-1.842-.736-3.226-.751h-3.316Z" transform="translate(-149.36 -1.905)" fill="#fff"/>
    <path id="Path_92" data-name="Path 92" d="M342.589,10.776l1.443-4.79,1.431,4.79Zm3.995,3.728h2.075L345.108,4.1H342.9l-3.509,10.4h2.077l.605-2.035h3.9Z" transform="translate(-157.643 -1.905)" fill="#fff"/>
    <path id="Path_93" data-name="Path 93" d="M363.224,5.87a4.666,4.666,0,0,1,2.18.278,3.333,3.333,0,0,1,1.591,3.258c0,2.163-.8,2.813-1.546,3.105a6.863,6.863,0,0,1-2.433.238h-.821V5.87ZM360.248,14.5h3.33a6.39,6.39,0,0,0,3.346-.636,4.964,4.964,0,0,0,2.135-4.477,5.373,5.373,0,0,0-2-4.481,4.984,4.984,0,0,0-3.081-.809h-3.728Z" transform="translate(-167.331 -1.905)" fill="#fff"/>
    <path id="Path_94" data-name="Path 94" d="M382.054,5.84V8.284h5.009v1.68h-5.009v2.785h5.853V14.5h-7.768V4.1h7.4V5.84Z" transform="translate(-176.57 -1.905)" fill="#fff"/>
    <path id="Path_95" data-name="Path 95" d="M406.385,11.37a5.587,5.587,0,0,1-.9,1.564,4.6,4.6,0,0,1-3.6,1.6c-2.755,0-4.863-2.019-4.863-5.5,0-3.536,2.284-5.438,4.936-5.438a4.166,4.166,0,0,1,4.245,3.211l-1.945.517a2.647,2.647,0,0,0-.384-1.032,2.2,2.2,0,0,0-1.87-.913c-1.694,0-2.874,1.4-2.874,3.625,0,2.37,1.252,3.684,2.888,3.684a2.389,2.389,0,0,0,1.987-1.017,3.424,3.424,0,0,0,.547-1.076Z" transform="translate(-184.414 -1.674)" fill="#fff"/>
    <path id="Path_96" data-name="Path 96" d="M422.5,8.018l3.64,6.486H423.91l-2.77-4.893-1.695,1.944V14.5h-1.932V4.1h1.932V8.874l4.17-4.772h2.3Z" transform="translate(-193.93 -1.905)" fill="#fff"/>
    <path id="Path_97" data-name="Path 97" d="M440.619,8.487V12.6H438.7V8.487l-3.48-6.29h2.2l2.254,4.316L441.959,2.2h2.165ZM442.165,0l-2.122,1.575h-1.5L439.631,0Z" transform="translate(-202.157)" fill="#fff"/>
    <path id="Path_98" data-name="Path 98" d="M176.428,41.735l3.64,6.482h-2.225l-2.771-4.892-1.693,1.947v2.945h-1.933v-10.4h1.933V42.59l4.166-4.776h2.3Z" transform="translate(-79.635 -17.564)" fill="#fff"/>
    <path id="Path_99" data-name="Path 99" d="M193.45,39.495a4.736,4.736,0,0,1,2.062.222,1.484,1.484,0,0,1,.827,1.4,1.621,1.621,0,0,1-1.827,1.605c-.368.017-.617.032-1.283.032h-.678V39.495Zm-2.828,8.722h1.929V44.358h1.74l2.065,3.858h2.223l-2.313-4.228a2.849,2.849,0,0,0,2.047-2.858,3.167,3.167,0,0,0-1.148-2.564c-.913-.737-1.841-.737-3.227-.753h-3.316Z" transform="translate(-88.542 -17.564)" fill="#fff"/>
    <path id="Path_100" data-name="Path 100" d="M211.09,44.489l1.445-4.787,1.432,4.787Zm3.993,3.728h2.079l-3.552-10.4H211.4l-3.507,10.4h2.078l.606-2.032h3.905Z" transform="translate(-96.563 -17.564)" fill="#fff"/>
    <path id="Path_101" data-name="Path 101" d="M231.181,37.814v7.355a3.3,3.3,0,0,1-.472,2.12,3.405,3.405,0,0,1-2.861,1.151,5.433,5.433,0,0,1-1.192-.133V46.39a4.718,4.718,0,0,0,1.031.147,1.606,1.606,0,0,0,1.2-.411c.367-.368.367-.809.367-1.665V37.814Z" transform="translate(-105.279 -17.564)" fill="#fff"/>
  </g>
</svg>
