<svg xmlns="http://www.w3.org/2000/svg" xmlns:xlink="http://www.w3.org/1999/xlink" width="630.499" height="230.457" viewBox="0 0 630.499 230.457">
  <defs>
    <clipPath id="clip-path">
      <rect id="Rectangle_2" data-name="Rectangle 2" width="630.499" height="230.456" fill="none"/>
    </clipPath>
  </defs>
  <g id="Group_6" data-name="Group 6" transform="translate(0 0)">
    <path id="Path_20" data-name="Path 20" d="M73.875,91.322l26.188,40.369H47.69ZM0,157.6H147.752L73.875,43.712Z" transform="translate(0 72.858)" fill="#e02938"/>
    <path id="Path_21" data-name="Path 21" d="M76.4,0V2.184H81.36l4.267,6.854L59.117,33.862V2.184h9.536V0H35.881V2.184h9.534V67.325H35.881v2.184H68.653V67.325H59.117V36.942L62.3,33.961,85.232,67.325H75.9v2.184h33.366V67.325h-7.654l-29.788-42.2L96.651,2.184h6.555V0Z" transform="translate(59.805 0)" fill="#0f0d0b"/>
    <g id="Group_5" data-name="Group 5" transform="translate(0 0)">
      <g id="Group_4" data-name="Group 4" clip-path="url(#clip-path)">
        <path id="Path_22" data-name="Path 22" d="M104.961,19.673A6.146,6.146,0,0,1,98.7,25.826a5.666,5.666,0,0,1-.493-11.318c-2.68-2.779-7.547-2.083-10.627,1.091-3.672,3.776-5.76,11.222-5.76,17.475V50.256h6.955V52.44H64.448V50.256H71.4V17.388H64.149V16.1l16.779-5.462h.893v9.531h.3c1.883-4.568,5.958-9.926,12.907-9.926,3.973,0,9.931,2.976,9.931,9.432" transform="translate(106.921 17.07)" fill="#0f0d0b"/>
        <path id="Path_23" data-name="Path 23" d="M117.192,25.827V48.271c0,2.68,1.685,3.376,3.475,1.389,2.184-2.68,2.083-7.15,2.083-10.526h2.184c0,3.573-.1,6.651-.989,9.136-1.291,3.376-3.776,5.459-7.448,5.459-5.264,0-8.443-4.565-8.443-10.326h-.5c-1.784,5.856-6.155,10.326-13.7,10.326-6.752,0-12.91-3.475-12.91-10.526,0-8.438,8.84-10.723,14.9-12.014L102,29.9c3.475-.7,4.766-2.779,4.766-5.76V18.878c0-4.467-2.381-6.454-7.646-6.454-3.077,0-7.446.992-9.83,3.872,3.776.2,5.96,2.581,5.96,5.659a5.768,5.768,0,0,1-5.862,5.659,6.018,6.018,0,0,1-6.155-5.958c0-7.046,8.339-11.416,16.086-11.416,13.9,0,17.875,6.152,17.875,15.587M106.463,30.4a5.092,5.092,0,0,1-2.779,1.387l-5.859,1.195c-4.667.989-5.659,4.368-5.659,8.736V44c0,4.371,1.389,6.95,4.766,6.95,5.163,0,9.83-7.152,9.83-15.091V30.4Z" transform="translate(134.916 17.068)" fill="#0f0d0b"/>
        <path id="Path_24" data-name="Path 24" d="M122.045,73.614c0,10.627-5.758,16.881-14,16.881-6.555,0-13.206-4.171-13.206-10.622A6.2,6.2,0,0,1,101,73.417a5.664,5.664,0,1,1,.3,11.323c.995,2.184,3.869,3.571,7.248,3.571,6.056,0,10.723-5.462,7.35-14l-4.272-10.622V31.415H104.37V30.125l16.785-5.462h.891Zm1.787-64.642a7.148,7.148,0,1,1-7.147-7.147,7.12,7.12,0,0,1,7.147,7.147" transform="translate(158.074 3.043)" fill="#0f0d0b"/>
        <path id="Path_25" data-name="Path 25" d="M133.69,64.283v2.184H109.364V64.283h6.95V31.415h-7.248V30.125l16.779-5.462h.893v39.62ZM128.428,8.972a7.15,7.15,0,1,1-7.152-7.147,7.123,7.123,0,0,1,7.152,7.147" transform="translate(181.785 3.043)" fill="#0f0d0b"/>
        <path id="Path_26" data-name="Path 26" d="M166.359,25.233V50.257h6.955v2.184H148.985V50.257h6.95V20.766c0-4.469-1.488-7.747-6.158-7.747-6.75,0-12.312,8.144-12.312,20.057V50.257h6.952v2.184H120.09V50.257h6.95V17.39h-7.251V16.1l16.782-5.462h.893v9.531h.3a15.3,15.3,0,0,1,14.7-9.928c8.142,0,13.9,4.966,13.9,14.993" transform="translate(199.659 17.068)" fill="#0f0d0b"/>
        <path id="Path_27" data-name="Path 27" d="M177.227,25.827V48.271c0,2.68,1.685,3.376,3.475,1.389,2.184-2.68,2.083-7.15,2.083-10.526h2.184c0,3.573-.1,6.651-.989,9.136-1.291,3.376-3.776,5.459-7.448,5.459-5.264,0-8.443-4.565-8.443-10.326h-.493c-1.787,5.856-6.158,10.326-13.7,10.326-6.752,0-12.91-3.475-12.91-10.526,0-8.438,8.84-10.723,14.9-12.014l6.155-1.291c3.475-.7,4.766-2.779,4.766-5.76V18.878c0-4.467-2.381-6.454-7.646-6.454-3.077,0-7.446.992-9.83,3.872,3.776.2,5.96,2.581,5.96,5.659a5.768,5.768,0,0,1-5.862,5.659,6.018,6.018,0,0,1-6.155-5.958c0-7.046,8.339-11.416,16.086-11.416,13.9,0,17.875,6.152,17.875,15.587M166.5,30.4a5.092,5.092,0,0,1-2.779,1.387l-5.859,1.195c-4.667.989-5.659,4.368-5.659,8.736V44c0,4.371,1.389,6.95,4.766,6.95,5.163,0,9.83-7.152,9.83-15.091V30.4Z" transform="translate(234.98 17.068)" fill="#0f0d0b"/>
        <path id="Path_28" data-name="Path 28" d="M87.764,69.226c0,12.312-8.144,21.747-18.766,21.747A17.236,17.236,0,0,1,53.11,81.341h-.3v28.6h6.95v2.184H35.435v-2.184h6.95V54.631H35.136V53.34l16.785-5.462h.893v9.235h.3A17.23,17.23,0,0,1,69,47.484c10.622,0,18.766,9.432,18.766,21.742m-34.951,0c0,14.4,8.24,18.969,13.7,18.969S76.548,84.12,76.548,71.709V66.746c0-12.414-4.571-16.483-10.032-16.483s-13.7,4.565-13.7,18.963" transform="translate(58.563 79.145)" fill="#0f0d0b"/>
        <path id="Path_29" data-name="Path 29" d="M101.2,69.226c0,12.811-11.126,21.747-22.046,21.747S57.11,82.037,57.11,69.226,68.23,47.484,79.153,47.484,101.2,56.418,101.2,69.226m-32.868-2.48v4.963c0,13.3,5.36,17.081,10.822,17.081s10.824-3.776,10.824-17.081V66.746c0-13.31-5.366-17.078-10.824-17.078S68.332,53.436,68.332,66.746" transform="translate(95.189 79.145)" fill="#0f0d0b"/>
        <path id="Path_30" data-name="Path 30" d="M128.212,107.733v2.184H110.835v-8.144h-.3a17.015,17.015,0,0,1-15.19,9.435c-10.624,0-19.465-9.435-19.465-21.747s8.84-21.742,19.465-21.742a17.008,17.008,0,0,1,15.19,9.432h.3V44.379l-7.251-2.285V40.806l16.779-5.462h.9v72.389ZM87.1,86.98v4.963c0,12.91,5.166,16.486,10.627,16.486s13.107-5.264,13.107-18.969S103.189,70.5,97.728,70.5,87.1,74.073,87.1,86.98" transform="translate(126.472 58.911)" fill="#0f0d0b"/>
        <path id="Path_31" data-name="Path 31" d="M150.742,58.545C148.558,50.9,143.4,39.08,130.088,39.08c-8.739,0-13.9,5.662-13.9,11.52,0,6.654,5.558,9.83,13.6,12.411l8.438,2.68c13.406,4.272,18.867,11.12,18.867,21.747,0,12.214-12.115,21.843-25.817,21.843a30.821,30.821,0,0,1-16.881-4.565L107.746,107v2.677h-2.184V87.639h1.491c1.885,6.851,8.638,19.459,24.227,19.459,9.734,0,16.486-6.355,16.486-13.8,0-6.854-3.675-10.227-13.606-13.406l-9.336-2.979c-10.622-3.376-17.87-9.931-17.87-20.155,0-9.536,8.539-19.865,23.134-19.865a24.634,24.634,0,0,1,14.3,4.272l5.659-1.984V36.5h2.184V58.545Z" transform="translate(175.946 60.836)" fill="#0f0d0b"/>
        <path id="Path_32" data-name="Path 32" d="M173.323,62.477V87.5h6.955v2.184H155.949V87.5h6.95V58.01c0-4.469-1.488-7.747-6.158-7.747-6.75,0-12.312,8.144-12.312,20.057V87.5h6.952v2.184H127.054V87.5H134V54.634h-7.251V53.343l16.782-5.462h.893v9.531h.3a15.3,15.3,0,0,1,14.7-9.928c8.142,0,13.9,4.965,13.9,14.993" transform="translate(211.267 79.145)" fill="#0f0d0b"/>
        <path id="Path_33" data-name="Path 33" d="M187.8,80.836H158.609V86.3c0,9.632,2.677,17.078,11.222,17.078a16.128,16.128,0,0,0,15.387-11.022l2.088.893a18.455,18.455,0,0,1-17.475,12.312c-12.118,0-22.443-8.736-22.443-22.142,0-12.608,11.318-21.347,21.446-21.347,10.03,0,18.969,5.859,18.969,18.766M172.609,56.408h-7.747l-10.03-16.782,1.291-.893,12.614,12.512,12.608-12.512,1.291.893ZM158.7,78.652h18.273V74.678c0-7.147-3.672-10.424-8.24-10.424-6.854,0-9.635,7.048-10.032,14.4" transform="translate(245.659 64.559)" fill="#0f0d0b"/>
        <path id="Path_34" data-name="Path 34" d="M176.854,102.085h16.881l6.854-8.84.4-2.779h2.184l-1.987,13.8H163.846v-1.488l24.729-37.236h-14.7l-6.158,8.04v2.979h-2.184v-13.2h36.044v1.488Zm11.024-45.679h-7.747L170.1,39.626l1.291-.893L184,51.243l12.614-12.51,1.288.893Z" transform="translate(273.092 64.559)" fill="#0f0d0b"/>
        <path id="Path_35" data-name="Path 35" d="M213.873,75.46l-2.683-4.267h-4.272V69.009h20.355v2.184h-4.661L210.1,81.519l17.774,26.214h5.461v2.184H208.612v-2.184h6.552L202.057,88.17l-4.667,3.875v15.689h6.95v2.184H180.011v-2.184h6.95V44.382L179.712,42.1V40.806l16.782-5.462h.9V89.063Z" transform="translate(299.537 58.911)" fill="#0f0d0b"/>
        <path id="Path_36" data-name="Path 36" d="M243.541,69.226c0,12.811-11.126,21.747-22.046,21.747s-22.043-8.936-22.043-21.747,11.12-21.742,22.043-21.742,22.046,8.934,22.046,21.742m-32.868-2.48v4.963c0,13.3,5.36,17.081,10.822,17.081s10.824-3.776,10.824-17.081V66.746c0-13.31-5.366-17.078-10.824-17.078s-10.822,3.768-10.822,17.078" transform="translate(332.437 79.145)" fill="#0f0d0b"/>
        <path id="Path_37" data-name="Path 37" d="M269.881,86.692v2.184H252.507v-8.64h-.3a15.31,15.31,0,0,1-14.7,9.931c-8.144,0-13.9-4.963-13.9-14.993V50.152h-7.248V47.968h17.678V79.641c0,4.469,1.488,7.747,6.155,7.747,6.752,0,12.315-8.144,12.315-20.059V50.152h-7.248V47.968h17.673V86.692Z" transform="translate(360.618 79.952)" fill="#0f0d0b"/>
      </g>
    </g>
  </g>
</svg>
