<svg xmlns="http://www.w3.org/2000/svg" xmlns:xlink="http://www.w3.org/1999/xlink" width="253.881" height="92.797" viewBox="0 0 253.881 92.797">
  <defs>
    <clipPath id="clip-path">
      <rect id="Rectangle_2" data-name="Rectangle 2" width="253.881" height="92.797" fill="#fff"/>
    </clipPath>
  </defs>
  <g id="Group_38" data-name="Group 38" transform="translate(0 0)">
    <path id="Path_20" data-name="Path 20" d="M29.747,62.883,40.292,79.138H19.2ZM0,89.57H59.495L29.747,43.712Z" transform="translate(0 3.227)" fill="#fff" opacity="0.4"/>
    <path id="Path_21" data-name="Path 21" d="M52.2,0V.879h2l1.718,2.76-10.675,10V.879h3.84V0h-13.2V.879H39.72v26.23H35.881v.879h13.2v-.879h-3.84V14.875l1.281-1.2,9.235,13.434H52v.879H65.431v-.879H62.35L50.355,10.117l10-9.238h2.639V0Z" transform="translate(2.649 0)" fill="#fff"/>
    <g id="Group_5" data-name="Group 5" transform="translate(0 0)">
      <g id="Group_4" data-name="Group 4" clip-path="url(#clip-path)">
        <path id="Path_22" data-name="Path 22" d="M80.583,14.039a2.475,2.475,0,0,1-2.52,2.477,2.282,2.282,0,0,1-.2-4.557c-1.079-1.119-3.039-.839-4.279.439-1.479,1.521-2.319,4.519-2.319,7.037v6.919h2.8v.879h-9.8v-.879h2.8V13.119H64.149V12.6l6.756-2.2h.36v3.838h.121c.758-1.839,2.4-4,5.2-4a3.937,3.937,0,0,1,4,3.8" transform="translate(4.735 0.756)" fill="#fff"/>
        <path id="Path_23" data-name="Path 23" d="M95.54,16.516v9.037c0,1.079.679,1.359,1.4.559.879-1.079.839-2.879.839-4.238h.879a11.279,11.279,0,0,1-.4,3.679,3.083,3.083,0,0,1-3,2.2c-2.12,0-3.4-1.838-3.4-4.158h-.2a5.457,5.457,0,0,1-5.517,4.158c-2.719,0-5.2-1.4-5.2-4.238,0-3.4,3.56-4.318,6-4.838l2.478-.52a2.124,2.124,0,0,0,1.919-2.319V13.718c0-1.8-.959-2.6-3.079-2.6A5.324,5.324,0,0,0,84.3,12.679a2.281,2.281,0,0,1,2.4,2.279,2.323,2.323,0,0,1-2.36,2.279,2.423,2.423,0,0,1-2.478-2.4c0-2.837,3.358-4.6,6.477-4.6,5.6,0,7.2,2.477,7.2,6.276m-4.32,1.841a2.05,2.05,0,0,1-1.119.558l-2.359.481c-1.879.4-2.279,1.759-2.279,3.518v.92c0,1.76.559,2.8,1.919,2.8,2.079,0,3.958-2.88,3.958-6.077v-2.2Z" transform="translate(5.975 0.756)" fill="#fff"/>
        <path id="Path_24" data-name="Path 24" d="M105.794,30.732c0,4.279-2.318,6.8-5.638,6.8-2.639,0-5.318-1.679-5.318-4.277a2.5,2.5,0,0,1,2.479-2.6,2.281,2.281,0,1,1,.119,4.559,3.107,3.107,0,0,0,2.919,1.438c2.439,0,4.318-2.2,2.959-5.638l-1.72-4.277v-13H98.677v-.52l6.759-2.2h.359ZM106.514,4.7a2.878,2.878,0,1,1-2.878-2.878A2.867,2.867,0,0,1,106.514,4.7" transform="translate(7 0.135)" fill="#fff"/>
        <path id="Path_25" data-name="Path 25" d="M118.981,26.975v.879h-9.8v-.879h2.8V13.74h-2.919v-.52l6.756-2.2h.36V26.975ZM116.862,4.7a2.879,2.879,0,1,1-2.88-2.878,2.868,2.868,0,0,1,2.88,2.878" transform="translate(8.05 0.135)" fill="#fff"/>
        <path id="Path_26" data-name="Path 26" d="M138.541,16.277V26.354h2.8v.879h-9.8v-.879h2.8V14.478c0-1.8-.6-3.119-2.479-3.119-2.718,0-4.958,3.279-4.958,8.076v6.919h2.8v.879h-9.8v-.879h2.8V13.119h-2.92V12.6l6.758-2.2h.36v3.838h.12a6.163,6.163,0,0,1,5.918-4c3.278,0,5.6,2,5.6,6.037" transform="translate(8.842 0.756)" fill="#fff"/>
        <path id="Path_27" data-name="Path 27" d="M155.575,16.516v9.037c0,1.079.679,1.359,1.4.559.879-1.079.839-2.879.839-4.238h.879a11.279,11.279,0,0,1-.4,3.679,3.083,3.083,0,0,1-3,2.2c-2.12,0-3.4-1.838-3.4-4.158h-.2a5.459,5.459,0,0,1-5.518,4.158c-2.719,0-5.2-1.4-5.2-4.238,0-3.4,3.56-4.318,6-4.838l2.478-.52a2.124,2.124,0,0,0,1.919-2.319V13.718c0-1.8-.959-2.6-3.079-2.6a5.324,5.324,0,0,0-3.958,1.559,2.281,2.281,0,0,1,2.4,2.279,2.323,2.323,0,0,1-2.36,2.279,2.423,2.423,0,0,1-2.478-2.4c0-2.837,3.358-4.6,6.477-4.6,5.6,0,7.2,2.477,7.2,6.276m-4.32,1.841a2.05,2.05,0,0,1-1.119.558l-2.359.481c-1.879.4-2.279,1.759-2.279,3.518v.92c0,1.76.559,2.8,1.919,2.8,2.079,0,3.958-2.88,3.958-6.077v-2.2Z" transform="translate(10.406 0.756)" fill="#fff"/>
        <path id="Path_28" data-name="Path 28" d="M56.328,56.239C56.328,61.2,53.048,65,48.771,65a6.94,6.94,0,0,1-6.4-3.879h-.119V72.634h2.8v.879h-9.8v-.879h2.8V50.362H35.136v-.52l6.759-2.2h.36v3.719h.119a6.938,6.938,0,0,1,6.4-3.878c4.277,0,7.556,3.8,7.556,8.755m-14.073,0c0,5.8,3.318,7.638,5.517,7.638s4.04-1.641,4.04-6.638v-2c0-5-1.841-6.637-4.04-6.637s-5.517,1.838-5.517,7.636" transform="translate(2.594 3.505)" fill="#fff"/>
        <path id="Path_29" data-name="Path 29" d="M74.863,56.239a8.878,8.878,0,1,1-8.877-8.755,8.929,8.929,0,0,1,8.877,8.755m-13.235-1v2c0,5.357,2.158,6.878,4.358,6.878s4.359-1.521,4.359-6.878v-2c0-5.359-2.161-6.877-4.359-6.877s-4.358,1.517-4.358,6.877" transform="translate(4.216 3.505)" fill="#fff"/>
        <path id="Path_30" data-name="Path 30" d="M96.952,64.493v.879h-7V62.093h-.121a6.851,6.851,0,0,1-6.116,3.8c-4.278,0-7.838-3.8-7.838-8.757s3.56-8.755,7.838-8.755a6.849,6.849,0,0,1,6.116,3.8h.121v-13.2l-2.92-.92v-.519l6.756-2.2h.361V64.493ZM80.4,56.136v2c0,5.2,2.08,6.638,4.279,6.638s5.278-2.12,5.278-7.638S86.876,49.5,84.677,49.5,80.4,50.939,80.4,56.136" transform="translate(5.601 2.609)" fill="#fff"/>
        <path id="Path_31" data-name="Path 31" d="M123.755,45.376c-.879-3.079-2.958-7.838-8.317-7.838-3.519,0-5.6,2.28-5.6,4.639,0,2.679,2.238,3.958,5.478,5l3.4,1.079c5.4,1.72,7.6,4.478,7.6,8.757,0,4.918-4.878,8.8-10.4,8.8a12.411,12.411,0,0,1-6.8-1.838l-2.679.92v1.078h-.879V57.092h.6c.759,2.759,3.478,7.836,9.756,7.836,3.919,0,6.638-2.559,6.638-5.557,0-2.76-1.48-4.118-5.479-5.4l-3.759-1.2c-4.277-1.359-7.2-4-7.2-8.116,0-3.84,3.438-8,9.315-8a9.919,9.919,0,0,1,5.758,1.72l2.279-.8V36.5h.879v8.877Z" transform="translate(7.792 2.694)" fill="#fff"/>
        <path id="Path_32" data-name="Path 32" d="M145.505,53.521V63.6h2.8v.879h-9.8V63.6h2.8V51.722c0-1.8-.6-3.119-2.479-3.119-2.718,0-4.958,3.279-4.958,8.076V63.6h2.8v.879h-9.8V63.6h2.8V50.363h-2.92v-.52l6.758-2.2h.36v3.838h.12a6.163,6.163,0,0,1,5.918-4c3.278,0,5.6,2,5.6,6.037" transform="translate(9.356 3.505)" fill="#fff"/>
        <path id="Path_33" data-name="Path 33" d="M163.661,55.686H151.906v2.2c0,3.879,1.078,6.877,4.519,6.877a6.494,6.494,0,0,0,6.2-4.438l.841.36a7.431,7.431,0,0,1-7.037,4.958,8.751,8.751,0,0,1-9.037-8.916,8.846,8.846,0,0,1,8.636-8.6c4.039,0,7.638,2.359,7.638,7.556m-6.118-9.836h-3.119l-4.039-6.758.52-.36,5.079,5.038,5.077-5.038.52.36Zm-5.6,8.957H159.3v-1.6c0-2.878-1.479-4.2-3.318-4.2-2.76,0-3.88,2.838-4.04,5.8" transform="translate(10.879 2.859)" fill="#fff"/>
        <path id="Path_34" data-name="Path 34" d="M169.084,64.243h6.8l2.76-3.56.16-1.119h.879l-.8,5.558H163.846v-.6L173.8,49.529h-5.918l-2.479,3.238v1.2h-.879V48.65H179.04v.6Zm4.439-18.393H170.4l-4.038-6.756.52-.36,5.077,5.037,5.079-5.037.519.36Z" transform="translate(12.094 2.859)" fill="#fff"/>
        <path id="Path_35" data-name="Path 35" d="M193.468,51.5l-1.08-1.718h-1.72V48.9h8.2v.879h-1.877l-5.038,4.158,7.157,10.556h2.2v.879h-9.955v-.879h2.638l-5.278-7.877-1.879,1.56v6.317h2.8v.879h-9.8v-.879h2.8V38.983l-2.919-.92v-.52l6.758-2.2h.361V56.975Z" transform="translate(13.265 2.609)" fill="#fff"/>
        <path id="Path_36" data-name="Path 36" d="M217.2,56.239a8.878,8.878,0,1,1-8.877-8.755,8.929,8.929,0,0,1,8.877,8.755m-13.235-1v2c0,5.357,2.158,6.878,4.358,6.878s4.359-1.521,4.359-6.878v-2c0-5.359-2.16-6.877-4.359-6.877s-4.358,1.517-4.358,6.877" transform="translate(14.722 3.505)" fill="#fff"/>
        <path id="Path_37" data-name="Path 37" d="M237.91,63.561v.879h-7V60.961h-.12a6.165,6.165,0,0,1-5.918,4c-3.279,0-5.6-2-5.6-6.037V48.847h-2.919v-.879h7.118V60.722c0,1.8.6,3.119,2.478,3.119,2.719,0,4.959-3.279,4.959-8.077V48.847H228v-.879h7.116V63.561Z" transform="translate(15.97 3.541)" fill="#fff"/>
      </g>
    </g>
  </g>
</svg>
