<?xml version="1.0" encoding="UTF-8" standalone="no"?>
<!DOCTYPE svg PUBLIC "-//W3C//DTD SVG 1.1//EN" "http://www.w3.org/Graphics/SVG/1.1/DTD/svg11.dtd">
<svg width="100%" height="100%" viewBox="0 0 242 25" version="1.1" xmlns="http://www.w3.org/2000/svg" xmlns:xlink="http://www.w3.org/1999/xlink" xml:space="preserve" xmlns:serif="http://www.serif.com/" style="fill-rule:evenodd;clip-rule:evenodd;stroke-linejoin:round;stroke-miterlimit:2;">
    <g transform="matrix(1,0,0,1,-16,-103)">
        <g id="logo" transform="matrix(0.478784,0,0,0.478784,6.27192,88.4692)">
            <g transform="matrix(1,0,0,1,510.622,42.3327)">
                <path d="M0,28.752C8.004,28.752 12.744,24.223 13.165,17.693L6.267,17.693C5.897,21.222 3.423,23.012 0.369,23.012C-3.896,23.012 -6.372,20.169 -6.372,14.639L-6.372,14.218C-6.372,8.952 -3.738,6.003 0.211,6.003C3.317,6.003 5.266,7.478 5.793,10.69L13.007,10.69C12.322,2.791 6.425,0 0.053,0C-7.794,0 -14.165,5.424 -14.165,14.323L-14.165,14.745C-14.165,23.749 -8.057,28.752 0,28.752" style="fill:rgb(11,64,105);fill-rule:nonzero;"/>
            </g>
            <g transform="matrix(1,0,0,1,488.348,30.9058)">
                <path d="M0,8.32C2.475,8.32 4.37,6.529 4.37,4.16C4.37,1.79 2.475,0 0,0C-2.423,0 -4.318,1.79 -4.318,4.16C-4.318,6.529 -2.423,8.32 0,8.32" style="fill:rgb(11,64,105);fill-rule:nonzero;"/>
            </g>
            <g transform="matrix(1,0,0,1,0,9.419)">
                <rect x="484.608" y="33.545" width="7.583" height="27.541" style="fill:rgb(11,64,105);"/>
            </g>
            <g transform="matrix(1,0,0,1,0,-3.061)">
                <rect x="470.917" y="33.545" width="7.583" height="40.021" style="fill:rgb(11,64,105);"/>
            </g>
            <g transform="matrix(1,0,0,1,458.91,44.6502)">
                <path d="M0,12.269C0,17.64 -2.316,20.484 -6.529,20.484C-10.689,20.484 -13.322,17.798 -13.322,12.269L-13.322,11.848C-13.322,6.318 -10.584,3.527 -6.582,3.527C-2.738,3.527 0,6.266 0,11.848L0,12.269ZM-4.265,-2.318C-8.32,-2.318 -11.532,-0.001 -13.06,2.632L-13.06,-14.166L-20.695,-14.166L-20.695,25.855L-13.06,25.855L-13.06,21.484C-11.638,24.328 -8.53,26.435 -4.265,26.435C2.581,26.435 7.741,21.327 7.741,12.216L7.741,11.795C7.741,2.685 2.476,-2.318 -4.265,-2.318" style="fill:rgb(11,64,105);fill-rule:nonzero;"/>
            </g>
            <g transform="matrix(1,0,0,1,416.204,42.9647)">
                <path d="M0,28.12C4.529,28.12 7.32,26.014 8.742,23.223L8.742,27.54L16.325,27.54L16.325,0L8.742,0L8.742,16.166C8.742,20.221 6.213,22.222 3.001,22.222C-0.263,22.222 -1.791,20.432 -1.791,16.693L-1.791,0L-9.374,0L-9.374,17.746C-9.374,24.96 -5.371,28.12 0,28.12" style="fill:rgb(11,64,105);fill-rule:nonzero;"/>
            </g>
            <g transform="matrix(1,0,0,1,395.248,65.2912)">
                <path d="M0,-8.372C0,-3.001 -2.32,-0.157 -6.53,-0.157C-10.69,-0.157 -13.323,-2.843 -13.323,-8.372L-13.323,-8.793C-13.323,-14.323 -10.585,-17.114 -6.583,-17.114C-2.738,-17.114 0,-14.375 0,-8.793L0,-8.372ZM-4.266,-22.959C-8.32,-22.959 -11.535,-20.642 -13.063,-18.009L-13.063,-22.327L-20.695,-22.327L-20.695,14.587L-13.063,14.587L-13.063,1.002C-11.638,3.687 -8.534,5.794 -4.266,5.794C2.58,5.794 7.741,0.686 7.741,-8.425L7.741,-8.846C7.741,-17.956 2.475,-22.959 -4.266,-22.959" style="fill:rgb(11,64,105);fill-rule:nonzero;"/>
            </g>
            <g transform="matrix(1,0,0,1,350.856,59.6575)">
                <path d="M0,-5.898C0.579,-9.795 2.896,-12.059 6.319,-12.059C9.953,-12.059 12.059,-10.058 12.322,-5.898L0,-5.898ZM19.747,-3.317C19.747,-13.165 13.428,-17.325 6.319,-17.325C-1.685,-17.325 -7.846,-11.69 -7.846,-3.002L-7.846,-2.58C-7.846,6.214 -1.791,11.427 6.53,11.427C14.06,11.427 18.799,8.109 19.694,2.159L12.48,2.159C12.006,4.476 10.269,6.003 6.74,6.003C2.58,6.003 0.105,3.37 -0.105,-1.211L19.747,-1.211L19.747,-3.317Z" style="fill:rgb(11,64,105);fill-rule:nonzero;"/>
            </g>
            <g transform="matrix(1,0,0,1,331.793,58.6036)">
                <path d="M0,-13.849C0,-10.215 -2.159,-8.425 -6.424,-8.425L-11.216,-8.425L-11.216,-19.22L-6.424,-19.22C-2.317,-19.22 0,-17.904 0,-14.059L0,-13.849ZM0.579,-4.107C5.003,-5.423 8.32,-8.425 8.32,-14.112L8.32,-14.323C8.32,-22.116 2.686,-25.75 -6.214,-25.75L-19.694,-25.75L-19.694,11.901L-11.216,11.901L-11.216,-2.632L-7.53,-2.632L1.475,11.901L10.532,11.901L0.579,-4.107Z" style="fill:rgb(11,64,105);fill-rule:nonzero;"/>
            </g>
            <g transform="matrix(1,0,0,1,280.081,30.4841)">
                <path d="M0,40.021L7.636,40.021L7.636,24.118C7.636,20.063 10.11,18.062 13.375,18.062C16.746,18.062 18.22,19.853 18.22,23.591L18.22,40.021L25.856,40.021L25.856,22.486C25.856,15.113 22.012,11.848 16.588,11.848C12.006,11.848 9.005,14.113 7.636,16.851L7.636,0L0,0L0,40.021Z" style="fill:rgb(232,29,37);fill-rule:nonzero;"/>
            </g>
            <g transform="matrix(1,0,0,1,263.178,42.3327)">
                <path d="M0,28.752C8.004,28.752 12.744,24.223 13.165,17.693L6.267,17.693C5.898,21.222 3.423,23.012 0.369,23.012C-3.897,23.012 -6.372,20.169 -6.372,14.639L-6.372,14.218C-6.372,8.952 -3.739,6.003 0.21,6.003C3.317,6.003 5.266,7.478 5.792,10.69L13.007,10.69C12.322,2.791 6.424,0 0.053,0C-7.793,0 -14.166,5.424 -14.166,14.323L-14.166,14.745C-14.166,23.749 -8.057,28.752 0,28.752" style="fill:rgb(232,29,37);fill-rule:nonzero;"/>
            </g>
            <g transform="matrix(1,0,0,1,227,59.6575)">
                <path d="M0,-5.898C0.58,-9.795 2.896,-12.059 6.319,-12.059C9.953,-12.059 12.059,-10.058 12.323,-5.898L0,-5.898ZM19.748,-3.317C19.748,-13.165 13.428,-17.325 6.319,-17.325C-1.685,-17.325 -7.846,-11.69 -7.846,-3.002L-7.846,-2.58C-7.846,6.214 -1.79,11.427 6.53,11.427C14.06,11.427 18.8,8.109 19.695,2.159L12.48,2.159C12.006,4.476 10.269,6.003 6.741,6.003C2.581,6.003 0.105,3.37 -0.105,-1.211L19.748,-1.211L19.748,-3.317Z" style="fill:rgb(232,29,37);fill-rule:nonzero;"/>
            </g>
            <g transform="matrix(1,0,0,1,193.246,42.9641)">
                <path d="M0,27.541L24.118,27.541L24.118,21.644L10.953,21.644L24.645,0.948L24.645,0L1.369,0L1.369,5.898L13.586,5.898L0,26.699L0,27.541Z" style="fill:rgb(232,29,37);fill-rule:nonzero;"/>
            </g>
            <g transform="matrix(1,0,0,1,175.184,32.2747)">
                <path d="M0,38.81C9.268,38.81 15.956,34.018 16.904,24.697L8.531,24.697C7.846,29.542 4.582,31.912 -0.105,31.912C-6.319,31.912 -9.9,27.383 -9.9,19.589L-9.9,19.168C-9.9,11.374 -6.108,6.74 -0.158,6.74C4.582,6.74 7.109,9.163 7.741,13.691L16.482,13.691C15.587,4.423 8.847,0 -0.21,0C-10.9,0 -18.905,7.793 -18.905,19.221L-18.905,19.642C-18.905,31.227 -12.322,38.81 0,38.81" style="fill:rgb(232,29,37);fill-rule:nonzero;"/>
            </g>
            <g transform="matrix(1,0,0,1,148.801,37.0139)">
                <path d="M0,34.018C2.054,34.018 3.581,33.649 4.634,33.281L4.634,27.383C3.739,27.751 2.896,27.91 1.738,27.91C-0.21,27.91 -1.316,26.856 -1.316,24.644L-1.316,11.374L4.476,11.374L4.476,5.951L-1.316,5.951L-1.316,0L-8.899,0L-8.899,5.951L-12.428,5.951L-12.428,11.374L-8.899,11.374L-8.899,25.329C-8.899,31.069 -5.792,34.018 0,34.018" style="fill:rgb(11,64,105);fill-rule:nonzero;"/>
            </g>
            <g transform="matrix(1,0,0,1,128.951,30.9058)">
                <path d="M0,8.32C2.475,8.32 4.371,6.529 4.371,4.16C4.371,1.79 2.475,0 0,0C-2.422,0 -4.318,1.79 -4.318,4.16C-4.318,6.529 -2.422,8.32 0,8.32" style="fill:rgb(11,64,105);fill-rule:nonzero;"/>
            </g>
            <g transform="matrix(1,0,0,1,0,9.419)">
                <rect x="125.212" y="33.545" width="7.583" height="27.541" style="fill:rgb(11,64,105);"/>
            </g>
            <g transform="matrix(1,0,0,1,109.625,42.3327)">
                <path d="M0,28.752C7.267,28.752 11.585,25.645 11.585,19.694C11.585,13.796 7.794,12.059 0.896,11.058C-3.106,10.479 -4.423,9.794 -4.423,8.057C-4.423,6.372 -3.001,5.213 -0.526,5.213C2.106,5.213 3.371,6.266 3.792,8.531L10.795,8.531C10.111,2.211 5.529,0 -0.579,0C-6.213,0 -11.479,2.843 -11.479,8.583C-11.479,13.955 -8.636,16.061 -1.316,17.167C2.633,17.746 4.266,18.536 4.266,20.432C4.266,22.327 2.896,23.433 -0.052,23.433C-3.37,23.433 -4.581,22.011 -4.897,19.537L-12.006,19.537C-11.743,25.487 -7.425,28.752 0,28.752" style="fill:rgb(11,64,105);fill-rule:nonzero;"/>
            </g>
            <g transform="matrix(1,0,0,1,89.8252,30.9058)">
                <path d="M0,8.32C2.475,8.32 4.371,6.529 4.371,4.16C4.371,1.79 2.475,0 0,0C-2.422,0 -4.318,1.79 -4.318,4.16C-4.318,6.529 -2.422,8.32 0,8.32" style="fill:rgb(11,64,105);fill-rule:nonzero;"/>
            </g>
            <g transform="matrix(1,0,0,1,0,9.419)">
                <rect x="86.086" y="33.545" width="7.583" height="27.541" style="fill:rgb(11,64,105);"/>
            </g>
            <g transform="matrix(1,0,0,1,60.7573,32.8541)">
                <path d="M0,37.651L9.794,37.651L22.328,0L14.323,0L5.371,28.91L-3.581,0L-12.586,0L0,37.651Z" style="fill:rgb(11,64,105);fill-rule:nonzero;"/>
            </g>
            <g transform="matrix(1,0,0,1,35.3228,47.1775)">
                <path d="M0,3.791L-3.95,3.791L-3.212,-1.264L0.737,-1.264L0,3.791ZM11.006,-1.264L11.006,-7.109L6.898,-7.109L8.004,-14.324L2.686,-14.324L1.58,-7.109L-2.37,-7.109L-1.316,-14.324L-6.635,-14.324L-7.741,-7.109L-12.796,-7.109L-12.796,-1.264L-8.583,-1.264L-9.321,3.791L-14.113,3.791L-14.113,9.847L-10.216,9.847L-11.427,18.115L-6.056,18.115L-4.845,9.847L-0.896,9.847L-2.106,18.115L3.212,18.115L4.423,9.847L9.689,9.847L9.689,3.791L5.318,3.791L6.056,-1.264L11.006,-1.264Z" style="fill:rgb(11,64,105);fill-rule:nonzero;"/>
            </g>
            <g transform="matrix(1,0,0,1,0,54.791)">
                <rect x="156.145" y="21.657" width="149.758" height="5.945" style="fill:rgb(232,29,37);"/>
            </g>
        </g>
    </g>
</svg>